<svg width="108" height="18" viewBox="0 0 108 18" fill="none" xmlns="http://www.w3.org/2000/svg">
<path fill-rule="evenodd" clip-rule="evenodd" d="M103.699 2.65853V17.4498H101.589V2.65853H97.8382V1.01506H107.451V2.65853H103.699ZM95.5757 11.3572C95.2084 11.819 94.7474 12.1477 94.1925 12.3433C93.6376 12.539 92.9773 12.6368 92.2114 12.6368C91.8519 12.6368 91.4455 12.6133 90.9923 12.5664C90.539 12.5194 90.1639 12.4646 89.8669 12.402V17.4498H87.7569V1.24984C88.3508 1.07766 88.9487 0.95636 89.5504 0.885926C90.1522 0.815491 90.8047 0.780273 91.5081 0.780273C92.4459 0.780273 93.243 0.8781 93.8994 1.07375C94.5559 1.2694 95.0873 1.59419 95.4937 2.0481C95.9001 2.50201 96.197 3.10462 96.3846 3.85593C96.5721 4.60723 96.6659 5.53853 96.6659 6.64984C96.6659 7.79245 96.576 8.74723 96.3963 9.51419C96.2166 10.2811 95.943 10.8955 95.5757 11.3572ZM94.38 4.5368C94.2628 3.97332 94.0792 3.52723 93.8291 3.19853C93.579 2.86984 93.2625 2.63897 92.8796 2.50593C92.4966 2.37288 92.0395 2.30636 91.5081 2.30636H89.8669V10.9933H91.5081C92.0395 10.9933 92.4966 10.9268 92.8796 10.7938C93.2625 10.6607 93.579 10.4298 93.8291 10.1011C94.0792 9.77245 94.2628 9.32636 94.38 8.76288C94.4973 8.1994 94.5559 7.49506 94.5559 6.64984C94.5559 5.80462 94.4973 5.10027 94.38 4.5368ZM82.4818 13.2238H77.7929L76.7379 17.4498H74.6278L78.6134 1.01506H81.6613L85.6469 17.4498H83.5368L82.4818 13.2238ZM80.1842 3.36288H80.0905L78.1445 11.5803H82.1302L80.1842 3.36288ZM70.0561 5.24114H69.9389L66.5394 15.3368H64.4294L61.0299 5.24114H60.9126L60.2093 17.4498H58.0993L59.0371 1.01506H61.616L65.4375 12.2846H65.5313L69.3528 1.01506H71.9317L72.8695 17.4498H70.7594L70.0561 5.24114ZM54.3012 15.9238C53.8636 16.5655 53.3361 17.0194 52.7187 17.2855C52.1013 17.5516 51.3941 17.6846 50.5969 17.6846C49.7998 17.6846 49.0926 17.5516 48.4752 17.2855C47.8578 17.0194 47.3303 16.5655 46.8927 15.9238C46.455 15.282 46.1229 14.4172 45.8963 13.3294C45.6696 12.2416 45.5563 10.8759 45.5563 9.23245C45.5563 7.58897 45.6696 6.22332 45.8963 5.13549C46.1229 4.04766 46.455 3.18288 46.8927 2.54114C47.3303 1.8994 47.8578 1.44549 48.4752 1.1794C49.0926 0.913317 49.7998 0.780273 50.5969 0.780273C51.3941 0.780273 52.1013 0.913317 52.7187 1.1794C53.3361 1.44549 53.8636 1.8994 54.3012 2.54114C54.7389 3.18288 55.071 4.04766 55.2976 5.13549C55.5243 6.22332 55.6376 7.58897 55.6376 9.23245C55.6376 10.8759 55.5243 12.2416 55.2976 13.3294C55.071 14.4172 54.7389 15.282 54.3012 15.9238ZM53.2814 5.75766C53.1173 4.84984 52.9023 4.12984 52.6366 3.59766C52.3709 3.06549 52.0583 2.69766 51.6988 2.49419C51.3394 2.29071 50.9721 2.18897 50.5969 2.18897C50.2218 2.18897 49.8545 2.29071 49.495 2.49419C49.1355 2.69766 48.823 3.06549 48.5572 3.59766C48.2915 4.12984 48.0766 4.84984 47.9125 5.75766C47.7484 6.66549 47.6663 7.82375 47.6663 9.23245C47.6663 10.6411 47.7484 11.7994 47.9125 12.7072C48.0766 13.6151 48.2915 14.3351 48.5572 14.8672C48.823 15.3994 49.1355 15.7672 49.495 15.9707C49.8545 16.1742 50.2218 16.2759 50.5969 16.2759C50.9721 16.2759 51.3394 16.1742 51.6988 15.9707C52.0583 15.7672 52.3709 15.3994 52.6366 14.8672C52.9023 14.3351 53.1173 13.6151 53.2814 12.7072C53.4455 11.7994 53.5275 10.6411 53.5275 9.23245C53.5275 7.82375 53.4455 6.66549 53.2814 5.75766ZM40.6329 9.9368H35.7095V17.4498H33.5995V1.01506H35.7095V8.29332H40.6329V1.01506H42.7429V17.4498H40.6329V9.9368ZM29.4974 17.4498L26.5668 10.4064L23.6362 17.4498H21.5262L25.0429 8.99766L21.8779 1.01506H23.9879L26.5668 7.58897L29.1458 1.01506H31.2558L28.0907 8.99766L31.6075 17.4498H29.4974ZM12.2655 1.01506H20.2367V2.65853H14.3756V8.05853H19.5334V9.70201H14.3756V15.8064H20.2367V17.4498H12.2655V1.01506ZM6.63878 17.4498H4.52875V2.65853H0.777584V1.01506H10.3899V2.65853H6.63878V17.4498Z" fill="white"/>
</svg>
